<svg xmlns="http://www.w3.org/2000/svg" viewBox="0 0 1200 630" role="img" aria-label="StashTrack waveform preview">
  <rect width="1200" height="630" fill="#0A0B0A"/>
  <path d="M0 120H1200M0 240H1200M0 360H1200M0 480H1200M120 0V630M240 0V630M360 0V630M480 0V630M600 0V630M720 0V630M840 0V630M960 0V630M1080 0V630" stroke="#20251D" stroke-width="1"/>
  <rect x="90" y="90" width="1020" height="450" fill="#101210" stroke="#2B3029" stroke-width="2"/>
  <rect x="90" y="90" width="1020" height="56" fill="#0C0E0C" stroke="#2B3029" stroke-width="2"/>
  <circle cx="128" cy="118" r="8" fill="#2D322A"/>
  <circle cx="154" cy="118" r="8" fill="#2D322A"/>
  <circle cx="180" cy="118" r="8" fill="#2D322A"/>
  <text x="128" y="230" fill="#E8EAE6" font-family="Arial, sans-serif" font-size="72" font-weight="700">StashTrack</text>
  <text x="132" y="282" fill="#9AA097" font-family="Consolas, monospace" font-size="28">sample from the web inside FL Studio</text>
  <g transform="translate(128 348)">
    <rect width="770" height="105" fill="#0C0E0C" stroke="#2B3029"/>
    <path d="M0 52.5H770" stroke="#35402B"/>
    <g fill="#C6F135">
      <rect x="16" y="35" width="6" height="35"/>
      <rect x="34" y="20" width="6" height="65"/>
      <rect x="52" y="45" width="6" height="20"/>
      <rect x="70" y="12" width="6" height="82"/>
      <rect x="88" y="30" width="6" height="45"/>
      <rect x="106" y="24" width="6" height="58"/>
      <rect x="124" y="46" width="6" height="18"/>
      <rect x="142" y="18" width="6" height="70"/>
      <rect x="160" y="32" width="6" height="42"/>
      <rect x="178" y="10" width="6" height="86"/>
      <rect x="196" y="34" width="6" height="38"/>
      <rect x="214" y="22" width="6" height="64"/>
      <rect x="232" y="48" width="6" height="16"/>
      <rect x="250" y="26" width="6" height="54"/>
      <rect x="268" y="38" width="6" height="30"/>
      <rect x="286" y="14" width="6" height="78"/>
      <rect x="304" y="28" width="6" height="50"/>
      <rect x="322" y="42" width="6" height="24"/>
      <rect x="340" y="16" width="6" height="74"/>
      <rect x="358" y="35" width="6" height="35"/>
      <rect x="376" y="20" width="6" height="65"/>
      <rect x="394" y="45" width="6" height="20"/>
      <rect x="412" y="12" width="6" height="82"/>
      <rect x="430" y="30" width="6" height="45"/>
      <rect x="448" y="24" width="6" height="58"/>
      <rect x="466" y="46" width="6" height="18"/>
      <rect x="484" y="18" width="6" height="70"/>
      <rect x="502" y="32" width="6" height="42"/>
      <rect x="520" y="10" width="6" height="86"/>
      <rect x="538" y="34" width="6" height="38"/>
      <rect x="556" y="22" width="6" height="64"/>
      <rect x="574" y="48" width="6" height="16"/>
      <rect x="592" y="26" width="6" height="54"/>
      <rect x="610" y="38" width="6" height="30"/>
      <rect x="628" y="14" width="6" height="78"/>
      <rect x="646" y="28" width="6" height="50"/>
      <rect x="664" y="42" width="6" height="24"/>
      <rect x="682" y="16" width="6" height="74"/>
      <rect x="700" y="34" width="6" height="38"/>
      <rect x="718" y="24" width="6" height="58"/>
      <rect x="736" y="40" width="6" height="28"/>
    </g>
  </g>
  <text x="128" y="505" fill="#C6F135" font-family="Consolas, monospace" font-size="26">stashtrack.n9records.com</text>
</svg>
